<svg xmlns="http://www.w3.org/2000/svg" viewBox="0 0 24 24" id="nike">
  <path d="M23.946 12.007c-.127-.325-.508-.611-1.044-.47-.075.02-11.705 3.328-16.709 4.751-.833.245-1.67.085-2.082-.398-.498-.583-.428-1.628.197-2.941a.75.75 0 0 0-1.258-.795C-.054 15.981-.82 18.942.892 20.493a3.748 3.748 0 0 0 2.605 1.004c1.213 0 2.381-.49 3.235-.849 1.382-.58 16.107-7.292 16.772-7.596.485-.254.569-.72.442-1.045zM5.75 11.5a.75.75 0 0 1-.696-1.029l2-5a.747.747 0 0 1 .838-.458.752.752 0 0 1 .608.737v5a.75.75 0 0 1-1.5 0V9.645l-.554 1.384a.749.749 0 0 1-.696.471z"></path>
  <path d="M7.75 11.5a.75.75 0 0 1-.696-1.029l2-5a.75.75 0 0 1 1.392.558l-2 5a.749.749 0 0 1-.696.471zm2.886 0a.75.75 0 0 1-.696-1.029l2-5a.75.75 0 0 1 1.393.557l-2 5a.75.75 0 0 1-.697.472zm2.864 0a.75.75 0 0 1-.696-1.029l2-5a.75.75 0 0 1 1.393.557l-2 5a.75.75 0 0 1-.697.472z"></path>
  <path d="M15.75 11.5a.75.75 0 0 1-.724-.554l-.706-2.61a.752.752 0 0 1 .2-.733l2.456-2.39a.751.751 0 0 1 1.047 1.076l-2.14 2.081.591 2.184a.75.75 0 0 1-.724.946zm4.5 0h-2a.751.751 0 0 1-.696-1.029l2-5A.75.75 0 0 1 20.25 5h2a.75.75 0 0 1 0 1.5h-1.492l-1.4 3.5h.893a.75.75 0 1 1-.001 1.5z"></path>
  <path d="M21.25 9h-2a.75.75 0 0 1 0-1.5h2a.75.75 0 0 1 0 1.5z"></path>
</svg>
